<mxfile host="app.diagrams.net" agent="Mozilla/5.0 (Windows NT 10.0; Win64; x64) AppleWebKit/537.36 (KHTML, like Gecko) Chrome/129.0.0.0 Safari/537.36" version="24.7.17">
  <diagram name="Page-1" id="fwR26hXOfUo9-WTclWqL">
    <mxGraphModel dx="1687" dy="868" grid="1" gridSize="10" guides="1" tooltips="1" connect="1" arrows="1" fold="1" page="1" pageScale="1" pageWidth="827" pageHeight="1169" math="0" shadow="0">
      <root>
        <mxCell id="0" />
        <mxCell id="1" parent="0" />
        <mxCell id="x3qgA67fyFmxyyH4tWS0-1" value="Cliente" style="ellipse;whiteSpace=wrap;html=1;" vertex="1" parent="1">
          <mxGeometry x="30" y="265" width="120" height="80" as="geometry" />
        </mxCell>
        <mxCell id="x3qgA67fyFmxyyH4tWS0-2" value="Proxy" style="shape=hexagon;perimeter=hexagonPerimeter2;whiteSpace=wrap;html=1;fixedSize=1;" vertex="1" parent="1">
          <mxGeometry x="230" y="260" width="140" height="90" as="geometry" />
        </mxCell>
        <mxCell id="x3qgA67fyFmxyyH4tWS0-4" value="Servidor de aplicação 1" style="shape=cylinder3;whiteSpace=wrap;html=1;boundedLbl=1;backgroundOutline=1;size=15;" vertex="1" parent="1">
          <mxGeometry x="555" y="150" width="70" height="80" as="geometry" />
        </mxCell>
        <mxCell id="x3qgA67fyFmxyyH4tWS0-5" value="Servidor de aplicação 2" style="shape=cylinder3;whiteSpace=wrap;html=1;boundedLbl=1;backgroundOutline=1;size=15;" vertex="1" parent="1">
          <mxGeometry x="555" y="270" width="70" height="80" as="geometry" />
        </mxCell>
        <mxCell id="x3qgA67fyFmxyyH4tWS0-6" value="Servidor de aplicação 3" style="shape=cylinder3;whiteSpace=wrap;html=1;boundedLbl=1;backgroundOutline=1;size=15;" vertex="1" parent="1">
          <mxGeometry x="555" y="390" width="70" height="80" as="geometry" />
        </mxCell>
        <mxCell id="x3qgA67fyFmxyyH4tWS0-7" value="" style="ellipse;whiteSpace=wrap;html=1;aspect=fixed;" vertex="1" parent="1">
          <mxGeometry x="582.5" y="520" width="15" height="15" as="geometry" />
        </mxCell>
        <mxCell id="x3qgA67fyFmxyyH4tWS0-13" value="" style="ellipse;whiteSpace=wrap;html=1;aspect=fixed;" vertex="1" parent="1">
          <mxGeometry x="582.5" y="555" width="15" height="15" as="geometry" />
        </mxCell>
        <mxCell id="x3qgA67fyFmxyyH4tWS0-14" value="" style="ellipse;whiteSpace=wrap;html=1;aspect=fixed;" vertex="1" parent="1">
          <mxGeometry x="582.5" y="590" width="15" height="15" as="geometry" />
        </mxCell>
        <mxCell id="x3qgA67fyFmxyyH4tWS0-15" value="" style="ellipse;whiteSpace=wrap;html=1;aspect=fixed;" vertex="1" parent="1">
          <mxGeometry x="582.5" y="50" width="15" height="15" as="geometry" />
        </mxCell>
        <mxCell id="x3qgA67fyFmxyyH4tWS0-16" value="" style="ellipse;whiteSpace=wrap;html=1;aspect=fixed;" vertex="1" parent="1">
          <mxGeometry x="582.5" y="85" width="15" height="15" as="geometry" />
        </mxCell>
        <mxCell id="x3qgA67fyFmxyyH4tWS0-17" value="" style="ellipse;whiteSpace=wrap;html=1;aspect=fixed;" vertex="1" parent="1">
          <mxGeometry x="582.5" y="120" width="15" height="15" as="geometry" />
        </mxCell>
        <mxCell id="x3qgA67fyFmxyyH4tWS0-21" value="" style="endArrow=classic;html=1;rounded=0;entryX=0;entryY=0.5;entryDx=0;entryDy=0;exitX=1;exitY=0.5;exitDx=0;exitDy=0;" edge="1" parent="1" source="x3qgA67fyFmxyyH4tWS0-1" target="x3qgA67fyFmxyyH4tWS0-2">
          <mxGeometry width="50" height="50" relative="1" as="geometry">
            <mxPoint x="240" y="300" as="sourcePoint" />
            <mxPoint x="290" y="240" as="targetPoint" />
          </mxGeometry>
        </mxCell>
        <mxCell id="x3qgA67fyFmxyyH4tWS0-25" value="" style="endArrow=classic;html=1;rounded=0;exitX=0.986;exitY=0.729;exitDx=0;exitDy=0;exitPerimeter=0;entryX=0;entryY=0;entryDx=0;entryDy=33.75;entryPerimeter=0;" edge="1" parent="1" source="x3qgA67fyFmxyyH4tWS0-4" target="x3qgA67fyFmxyyH4tWS0-35">
          <mxGeometry width="50" height="50" relative="1" as="geometry">
            <mxPoint x="240" y="370" as="sourcePoint" />
            <mxPoint x="700" y="281.25" as="targetPoint" />
          </mxGeometry>
        </mxCell>
        <mxCell id="x3qgA67fyFmxyyH4tWS0-26" value="" style="endArrow=classic;html=1;rounded=0;exitX=1;exitY=0.5;exitDx=0;exitDy=0;exitPerimeter=0;entryX=0;entryY=0.5;entryDx=0;entryDy=0;entryPerimeter=0;" edge="1" parent="1" source="x3qgA67fyFmxyyH4tWS0-5" target="x3qgA67fyFmxyyH4tWS0-35">
          <mxGeometry width="50" height="50" relative="1" as="geometry">
            <mxPoint x="629" y="218" as="sourcePoint" />
            <mxPoint x="700" y="302.5" as="targetPoint" />
          </mxGeometry>
        </mxCell>
        <mxCell id="x3qgA67fyFmxyyH4tWS0-27" value="" style="endArrow=classic;html=1;rounded=0;exitX=1;exitY=0.5;exitDx=0;exitDy=0;exitPerimeter=0;entryX=0;entryY=0;entryDx=0;entryDy=71.25;entryPerimeter=0;" edge="1" parent="1" source="x3qgA67fyFmxyyH4tWS0-6" target="x3qgA67fyFmxyyH4tWS0-35">
          <mxGeometry width="50" height="50" relative="1" as="geometry">
            <mxPoint x="639" y="228" as="sourcePoint" />
            <mxPoint x="700" y="323.75" as="targetPoint" />
          </mxGeometry>
        </mxCell>
        <mxCell id="x3qgA67fyFmxyyH4tWS0-31" value="" style="endArrow=none;html=1;rounded=0;entryX=0.5;entryY=1;entryDx=0;entryDy=0;entryPerimeter=0;exitX=0.5;exitY=0;exitDx=0;exitDy=0;exitPerimeter=0;" edge="1" parent="1" source="x3qgA67fyFmxyyH4tWS0-5" target="x3qgA67fyFmxyyH4tWS0-4">
          <mxGeometry width="50" height="50" relative="1" as="geometry">
            <mxPoint x="570" y="290" as="sourcePoint" />
            <mxPoint x="620" y="240" as="targetPoint" />
          </mxGeometry>
        </mxCell>
        <mxCell id="x3qgA67fyFmxyyH4tWS0-32" value="" style="endArrow=none;html=1;rounded=0;entryX=0.5;entryY=1;entryDx=0;entryDy=0;entryPerimeter=0;exitX=0.5;exitY=0;exitDx=0;exitDy=0;exitPerimeter=0;" edge="1" parent="1" source="x3qgA67fyFmxyyH4tWS0-6" target="x3qgA67fyFmxyyH4tWS0-5">
          <mxGeometry width="50" height="50" relative="1" as="geometry">
            <mxPoint x="600" y="280" as="sourcePoint" />
            <mxPoint x="600" y="240" as="targetPoint" />
          </mxGeometry>
        </mxCell>
        <mxCell id="x3qgA67fyFmxyyH4tWS0-35" value="Servidor de banco de dados distribuído" style="shape=cylinder3;whiteSpace=wrap;html=1;boundedLbl=1;backgroundOutline=1;size=15;" vertex="1" parent="1">
          <mxGeometry x="710" y="257.5" width="80" height="105" as="geometry" />
        </mxCell>
        <mxCell id="x3qgA67fyFmxyyH4tWS0-37" value="Fila Redis" style="rhombus;whiteSpace=wrap;html=1;" vertex="1" parent="1">
          <mxGeometry x="414" y="265" width="80" height="80" as="geometry" />
        </mxCell>
        <mxCell id="x3qgA67fyFmxyyH4tWS0-38" value="" style="endArrow=classic;html=1;rounded=0;exitX=1;exitY=0.5;exitDx=0;exitDy=0;entryX=0;entryY=0.5;entryDx=0;entryDy=0;" edge="1" parent="1" source="x3qgA67fyFmxyyH4tWS0-2" target="x3qgA67fyFmxyyH4tWS0-37">
          <mxGeometry width="50" height="50" relative="1" as="geometry">
            <mxPoint x="290" y="460" as="sourcePoint" />
            <mxPoint x="340" y="410" as="targetPoint" />
          </mxGeometry>
        </mxCell>
        <mxCell id="x3qgA67fyFmxyyH4tWS0-39" value="" style="endArrow=classic;html=1;rounded=0;exitX=0;exitY=0;exitDx=0;exitDy=52.5;exitPerimeter=0;entryX=1;entryY=0;entryDx=0;entryDy=0;" edge="1" parent="1" source="x3qgA67fyFmxyyH4tWS0-4" target="x3qgA67fyFmxyyH4tWS0-37">
          <mxGeometry width="50" height="50" relative="1" as="geometry">
            <mxPoint x="520" y="500" as="sourcePoint" />
            <mxPoint x="570" y="450" as="targetPoint" />
          </mxGeometry>
        </mxCell>
        <mxCell id="x3qgA67fyFmxyyH4tWS0-40" value="" style="endArrow=classic;html=1;rounded=0;exitX=0;exitY=0.5;exitDx=0;exitDy=0;exitPerimeter=0;entryX=1;entryY=0.5;entryDx=0;entryDy=0;" edge="1" parent="1" source="x3qgA67fyFmxyyH4tWS0-5" target="x3qgA67fyFmxyyH4tWS0-37">
          <mxGeometry width="50" height="50" relative="1" as="geometry">
            <mxPoint x="565" y="213" as="sourcePoint" />
            <mxPoint x="484" y="295" as="targetPoint" />
          </mxGeometry>
        </mxCell>
        <mxCell id="x3qgA67fyFmxyyH4tWS0-41" value="" style="endArrow=classic;html=1;rounded=0;exitX=0;exitY=0;exitDx=0;exitDy=27.5;exitPerimeter=0;entryX=1;entryY=1;entryDx=0;entryDy=0;" edge="1" parent="1" source="x3qgA67fyFmxyyH4tWS0-6" target="x3qgA67fyFmxyyH4tWS0-37">
          <mxGeometry width="50" height="50" relative="1" as="geometry">
            <mxPoint x="575" y="223" as="sourcePoint" />
            <mxPoint x="494" y="305" as="targetPoint" />
          </mxGeometry>
        </mxCell>
        <mxCell id="x3qgA67fyFmxyyH4tWS0-45" style="edgeStyle=orthogonalEdgeStyle;rounded=0;orthogonalLoop=1;jettySize=auto;html=1;entryX=0.5;entryY=1;entryDx=0;entryDy=0;" edge="1" parent="1" source="x3qgA67fyFmxyyH4tWS0-42" target="x3qgA67fyFmxyyH4tWS0-37">
          <mxGeometry relative="1" as="geometry" />
        </mxCell>
        <mxCell id="x3qgA67fyFmxyyH4tWS0-42" value="Monitor de carga" style="rhombus;whiteSpace=wrap;html=1;" vertex="1" parent="1">
          <mxGeometry x="409" y="450" width="90" height="95" as="geometry" />
        </mxCell>
        <mxCell id="x3qgA67fyFmxyyH4tWS0-44" value="" style="endArrow=classic;html=1;rounded=0;exitX=0.5;exitY=1;exitDx=0;exitDy=0;exitPerimeter=0;entryX=1;entryY=0.5;entryDx=0;entryDy=0;" edge="1" parent="1" source="x3qgA67fyFmxyyH4tWS0-6" target="x3qgA67fyFmxyyH4tWS0-42">
          <mxGeometry width="50" height="50" relative="1" as="geometry">
            <mxPoint x="560" y="530" as="sourcePoint" />
            <mxPoint x="510" y="500" as="targetPoint" />
            <Array as="points">
              <mxPoint x="590" y="498" />
            </Array>
          </mxGeometry>
        </mxCell>
      </root>
    </mxGraphModel>
  </diagram>
</mxfile>
